<svg xmlns="http://www.w3.org/2000/svg" xmlns:xlink="http://www.w3.org/1999/xlink" width="62" height="62" viewBox="0 0 62 62">
  <defs>
    <linearGradient id="linear-gradient" x1="0.54" y1="0.008" x2="0.46" y2="0.778" gradientUnits="objectBoundingBox">
      <stop offset="0" stop-color="#fcb37e"/>
      <stop offset="1" stop-color="#8c6239"/>
    </linearGradient>
    <linearGradient id="linear-gradient-2" x1="0.527" y1="0.411" x2="0.305" y2="0.729" xlink:href="#linear-gradient"/>
    <linearGradient id="linear-gradient-3" x1="0.638" y1="0.35" x2="0.39" y2="0.606" xlink:href="#linear-gradient"/>
    <linearGradient id="linear-gradient-4" x1="0.461" y1="0.075" x2="0.517" y2="0.746" gradientUnits="objectBoundingBox">
      <stop offset="0" stop-color="#00adfb"/>
      <stop offset="1" stop-color="#3f3ced"/>
    </linearGradient>
    <linearGradient id="linear-gradient-5" x1="0.293" y1="-0.096" x2="1.44" y2="0.85" xlink:href="#linear-gradient"/>
    <linearGradient id="linear-gradient-6" x1="1.473" y1="0.779" x2="0.687" y2="-1.246" gradientUnits="objectBoundingBox">
      <stop offset="0" stop-color="#db9d6c"/>
      <stop offset="0.261" stop-color="#b98355"/>
      <stop offset="0.687" stop-color="#b98255"/>
      <stop offset="1" stop-color="#fff"/>
    </linearGradient>
    <linearGradient id="linear-gradient-7" x1="-0.293" y1="3.248" x2="-1.508" y2="2.849" gradientUnits="objectBoundingBox">
      <stop offset="0" stop-color="#653b12" stop-opacity="0"/>
      <stop offset="1" stop-color="#8c6239"/>
    </linearGradient>
    <linearGradient id="linear-gradient-8" x1="-0.581" y1="5.404" x2="-0.096" y2="5.924" gradientUnits="objectBoundingBox">
      <stop offset="0" stop-color="#91f27f"/>
      <stop offset="1" stop-color="#4ab172"/>
    </linearGradient>
    <linearGradient id="linear-gradient-9" x1="-0.314" y1="6.315" x2="-1.137" y2="5.107" gradientUnits="objectBoundingBox">
      <stop offset="0" stop-color="#91f27f" stop-opacity="0"/>
      <stop offset="1" stop-color="#ffed82"/>
    </linearGradient>
    <linearGradient id="linear-gradient-10" x1="0.603" y1="1.457" x2="0.489" y2="0.365" gradientUnits="objectBoundingBox">
      <stop offset="0" stop-color="#ffb4af"/>
      <stop offset="0.318" stop-color="#ffa2ae"/>
      <stop offset="0.952" stop-color="#ff74ab"/>
      <stop offset="1" stop-color="#ff70ab"/>
    </linearGradient>
    <linearGradient id="linear-gradient-11" x1="-4.552" y1="1" x2="-4.538" y2="1.316" gradientUnits="objectBoundingBox">
      <stop offset="0" stop-color="#ffd9a9"/>
      <stop offset="1" stop-color="#fbb27e"/>
    </linearGradient>
    <linearGradient id="linear-gradient-12" x1="-2.661" y1="0.665" x2="-2.636" y2="-0.14" xlink:href="#linear-gradient-11"/>
    <linearGradient id="linear-gradient-13" x1="-2.202" y1="1.551" x2="-2.388" y2="0.916" xlink:href="#linear-gradient-11"/>
    <linearGradient id="linear-gradient-14" x1="1.072" y1="1.467" x2="1.139" y2="1.834" xlink:href="#linear-gradient-11"/>
    <linearGradient id="linear-gradient-15" x1="2.465" y1="3.508" x2="2.683" y2="3.508" gradientUnits="objectBoundingBox">
      <stop offset="0" stop-color="#fbb27e" stop-opacity="0"/>
      <stop offset="1" stop-color="#ff7044"/>
    </linearGradient>
    <linearGradient id="linear-gradient-16" x1="-0.752" y1="12.194" x2="-0.267" y2="12.713" gradientUnits="objectBoundingBox">
      <stop offset="0" stop-color="#9b62cd"/>
      <stop offset="1" stop-color="#833ac1"/>
    </linearGradient>
    <linearGradient id="linear-gradient-17" x1="-0.622" y1="13.662" x2="-1.444" y2="12.454" gradientUnits="objectBoundingBox">
      <stop offset="0" stop-color="#9b62cd" stop-opacity="0"/>
      <stop offset="1" stop-color="#ff75c8"/>
    </linearGradient>
    <linearGradient id="linear-gradient-18" x1="0.5" y1="-0.125" x2="0.5" y2="1.988" gradientUnits="objectBoundingBox">
      <stop offset="0" stop-color="#ffe7ca"/>
      <stop offset="0.914" stop-color="#fabf8c"/>
      <stop offset="1" stop-color="#fabf8c"/>
    </linearGradient>
  </defs>
  <g id="Group_4193" data-name="Group 4193" transform="translate(-23157 -6972)">
    <g id="Group_2208" data-name="Group 2208" transform="translate(23157 6972)">
      <g id="Group_2162" data-name="Group 2162">
        <g id="Group_2087" data-name="Group 2087">
          <g id="Group_2066" data-name="Group 2066">
            <g id="Group_2065" data-name="Group 2065">
              <g id="Group_2064" data-name="Group 2064">
                <g id="Group_2063" data-name="Group 2063">
                  <g id="Group_2062" data-name="Group 2062">
                    <g id="Group_2061" data-name="Group 2061">
                      <g id="Group_2060" data-name="Group 2060">
                        <circle id="Ellipse_354" data-name="Ellipse 354" cx="31" cy="31" r="31" fill="#ffefcc"/>
                      </g>
                    </g>
                  </g>
                </g>
              </g>
            </g>
          </g>
        </g>
      </g>
    </g>
    <line id="Line_18" data-name="Line 18" transform="translate(23203.5 7006.5)" fill="none" stroke="#707070" stroke-width="0.15"/>
    <g id="helping-hand" transform="translate(23167.281 6983.69)">
      <path id="Path_1617" data-name="Path 1617" d="M164.081,284.9a.905.905,0,0,0-.671-.381l-2.168-.114a4.139,4.139,0,0,1-2.236-.823,2.469,2.469,0,0,0,1.79,2.642,7.146,7.146,0,0,0,.824.1l1.861.113a.907.907,0,0,0,.824-.478,1.347,1.347,0,0,0,.026-.219,1.315,1.315,0,0,0-.25-.838Z" transform="translate(-145.565 -262.127)" fill="url(#linear-gradient)"/>
      <path id="Path_1618" data-name="Path 1618" d="M165.716,287.47l-2.773-.835q-.619-.187-1.213-.43a3.272,3.272,0,0,1-1.888-3.965,7.305,7.305,0,0,0,3.12,1.861l3.236.951a1.5,1.5,0,0,1,1.014,1.865,1.451,1.451,0,0,1-.106.264A1.484,1.484,0,0,1,165.716,287.47Z" transform="translate(-146.214 -260.889)" fill="url(#linear-gradient-2)"/>
      <path id="Path_1619" data-name="Path 1619" d="M163.64,288.278l-3.229-1.825q-.721-.408-1.394-.879a4.191,4.191,0,0,1-1.24-5.485,9.357,9.357,0,0,0,3.373,3.2l3.775,2.1a1.921,1.921,0,0,1,.741,2.616,1.858,1.858,0,0,1-.207.3A1.9,1.9,0,0,1,163.64,288.278Z" transform="translate(-143.933 -258.9)" fill="url(#linear-gradient-3)"/>
      <path id="Path_1620" data-name="Path 1620" d="M8.39,0h7.8a.272.272,0,0,1,.272.275l-.026,2.269H7.839L7.862.516A.522.522,0,0,1,8.39,0Z" transform="translate(-5.837 0)" fill="url(#linear-gradient-4)"/>
      <path id="Path_1621" data-name="Path 1621" d="M39.574,66.009a1.823,1.823,0,0,0-.7-2.48l-3.578-1.992a8.884,8.884,0,0,1-3.333-3.258A1.688,1.688,0,0,0,33.1,56.2l-.3-1.077a11.157,11.157,0,0,1,.144-6.5,7.452,7.452,0,0,0-1.311-7.045l-4-4.887-1.88.527-5.523,1.548.537,1.011a55.191,55.191,0,0,1,4.411,11.013l1.241,4.426a16.224,16.224,0,0,0,7.635,9.748L37.11,66.7A1.8,1.8,0,0,0,39.574,66.009Z" transform="translate(-17.285 -33.92)" fill="url(#linear-gradient-5)"/>
      <path id="Path_1622" data-name="Path 1622" d="M91.018,179.029a16.244,16.244,0,0,0,3.575,6.492l1.97-3.435-.046.014a1.717,1.717,0,0,1-2.092-1.2l-.326-1.162a27.632,27.632,0,0,1-1.017-6.782l-.057-2.318-2.909,5.175Z" transform="translate(-81.889 -157.729)" fill="#a07045" opacity="0.55"/>
      <path id="Path_1623" data-name="Path 1623" d="M156.423,338.419l-3.062-1.731a16.186,16.186,0,0,1-4.059-3.256l1.562-2.779a8.871,8.871,0,0,0,3.2,3.038l3.579,1.991a1.821,1.821,0,0,1,.7,2.48,1.755,1.755,0,0,1-.2.284A1.8,1.8,0,0,1,156.423,338.419Z" transform="translate(-136.598 -305.64)" fill="url(#linear-gradient-6)"/>
      <path id="Path_1624" data-name="Path 1624" d="M28.169,37.358l-.542-.662-1.88.527-5.523,1.548.537,1.011a55.182,55.182,0,0,1,2.714,5.926Z" transform="translate(-17.285 -33.92)" fill="url(#linear-gradient-7)"/>
      <path id="Path_1625" data-name="Path 1625" d="M2.064,5.083,1.554,3.266a.794.794,0,0,1,.55-.979L10.157.029a.794.794,0,0,1,.979.55L11.646,2.4a.794.794,0,0,1-.55.979L3.043,5.633a.794.794,0,0,1-.979-.55Z" transform="translate(0 0)" fill="url(#linear-gradient-8)"/>
      <path id="Path_1626" data-name="Path 1626" d="M10.828,8.019a.794.794,0,0,0-.979-.55L1.8,9.726a.792.792,0,0,0-.259.128.79.79,0,0,0,.025.288l.509,1.817a.794.794,0,0,0,.979.55L11.1,10.252a.791.791,0,0,0,.259-.128.792.792,0,0,0-.025-.288Z" transform="translate(-0.008 -6.876)" fill="url(#linear-gradient-9)"/>
      <path id="Path_1627" data-name="Path 1627" d="M399.5,479.414H391.58a.212.212,0,0,1-.212-.214l.027-2.33h8.661l-.023,2.028A.522.522,0,0,1,399.5,479.414Z" transform="translate(-360.351 -440.795)" fill="url(#linear-gradient-10)"/>
      <path id="Path_1628" data-name="Path 1628" d="M281.32,190.71a.905.905,0,0,0,.671.381l2.168.114a4.139,4.139,0,0,1,2.236.823,2.469,2.469,0,0,0-1.79-2.642,7.163,7.163,0,0,0-.824-.1l-1.861-.113a.907.907,0,0,0-.824.478,1.349,1.349,0,0,0-.026.219A1.316,1.316,0,0,0,281.32,190.71Z" transform="translate(-258.397 -174.863)" fill="url(#linear-gradient-11)"/>
      <path id="Path_1629" data-name="Path 1629" d="M252.281,158.353l2.773.835q.619.187,1.213.43a3.272,3.272,0,0,1,1.888,3.965,7.305,7.305,0,0,0-3.12-1.861l-3.236-.951a1.5,1.5,0,0,1-1.014-1.865,1.451,1.451,0,0,1,.106-.264A1.484,1.484,0,0,1,252.281,158.353Z" transform="translate(-230.346 -146.315)" fill="url(#linear-gradient-12)"/>
      <path id="Path_1630" data-name="Path 1630" d="M240.878,119.131l3.229,1.825q.721.408,1.394.879a4.191,4.191,0,0,1,1.24,5.485,9.357,9.357,0,0,0-3.373-3.2l-3.775-2.1a1.921,1.921,0,0,1-.741-2.616,1.857,1.857,0,0,1,.207-.3A1.9,1.9,0,0,1,240.878,119.131Z" transform="translate(-219.147 -109.891)" fill="url(#linear-gradient-13)"/>
      <path id="Path_1631" data-name="Path 1631" d="M231.664,75.028a1.823,1.823,0,0,0,.7,2.48l3.578,1.992a8.883,8.883,0,0,1,3.333,3.258,1.688,1.688,0,0,0-1.136,2.075l.3,1.077a11.157,11.157,0,0,1-.144,6.5,7.452,7.452,0,0,0,1.311,7.045l4,4.887,1.88-.527,5.523-1.548-.538-1.011a55.193,55.193,0,0,1-4.411-11.013l-1.241-4.426a16.224,16.224,0,0,0-7.635-9.748l-3.062-1.73A1.8,1.8,0,0,0,231.664,75.028Z" transform="translate(-212.515 -68.498)" fill="url(#linear-gradient-14)"/>
      <path id="Path_1632" data-name="Path 1632" d="M361.47,394.565l-8.406,2.356,2.977,3.638,1.88-.527,5.523-1.548-.538-1.011q-.762-1.433-1.437-2.908Z" transform="translate(-324.945 -364.716)" fill="url(#linear-gradient-15)"/>
      <path id="Path_1633" data-name="Path 1633" d="M375.334,440.723l-.509-1.817a.794.794,0,0,1,.55-.979l8.053-2.257a.794.794,0,0,1,.979.55l.509,1.817a.794.794,0,0,1-.55.979l-8.053,2.257A.794.794,0,0,1,375.334,440.723Z" transform="translate(-345.032 -402.684)" fill="url(#linear-gradient-16)"/>
      <path id="Path_1634" data-name="Path 1634" d="M384.1,443.659a.794.794,0,0,0-.979-.55l-8.053,2.257a.256.256,0,0,0-.234.416l.509,1.817a.794.794,0,0,0,.979.55l8.053-2.257a.256.256,0,0,0,.234-.416Z" transform="translate(-345.041 -409.56)" fill="url(#linear-gradient-17)"/>
      <path id="Path_1635" data-name="Path 1635" d="M322.181,199.059l-.057-2.318a27.637,27.637,0,0,0-1.017-6.782l-.326-1.162a1.716,1.716,0,0,0-2.092-1.2l-.047.013a1.688,1.688,0,0,0-1.137,2.075l.3,1.077a11.157,11.157,0,0,1-.144,6.5,7.452,7.452,0,0,0,1.311,7.045l.152.186Z" transform="translate(-291.879 -173.348)" fill="url(#linear-gradient-18)"/>
    </g>
  </g>
</svg>
